Run_40002
nRows=4
nColumns=164

# SIMM Motion File Header:
name Run_40002
datacolumns 164
datarows 4
otherdata 1
range 0.16000000 0.19000000
endheader
time	pelvis_tilt	pelvis_list	pelvis_rotation	pelvis_tx	pelvis_ty	pelvis_tz	hip_flexion_r	hip_adduction_r	hip_rotation_r	knee_angle_r	ankle_angle_r	hip_flexion_l	hip_adduction_l	hip_rotation_l	knee_angle_l	ankle_angle_l	lumbar_extension	lumbar_bending	lumbar_rotation	arm_flex_r	arm_add_r	arm_rot_r	elbow_flex_r	pro_sup_r	arm_flex_l	arm_add_l	arm_rot_l	elbow_flex_l	pro_sup_l	subtalar_angle_r	mtp_angle_r	subtalar_angle_l	mtp_angle_l	wrist_flex_r	wrist_dev_r	wrist_flex_l	wrist_dev_l	LASI_tx	LASI_ty	LASI_tz	RASI_tx	RASI_ty	RASI_tz	LPSI_tx	LPSI_ty	LPSI_tz	RPSI_tx	RPSI_ty	RPSI_tz	RTH1_tx	RTH1_ty	RTH1_tz	RTH2_tx	RTH2_ty	RTH2_tz	RTH3_tx	RTH3_ty	RTH3_tz	LTH1_tx	LTH1_ty	LTH1_tz	LTH2_tx	LTH2_ty	LTH2_tz	LTH3_tx	LTH3_ty	LTH3_tz	RTB1_tx	RTB1_ty	RTB1_tz	RTB2_tx	RTB2_ty	RTB2_tz	RTB3_tx	RTB3_ty	RTB3_tz	LTB1_tx	LTB1_ty	LTB1_tz	LTB2_tx	LTB2_ty	LTB2_tz	LTB3_tx	LTB3_ty	LTB3_tz	RCAL_tx	RCAL_ty	RCAL_tz	RTOE_tx	RTOE_ty	RTOE_tz	RMT5_tx	RMT5_ty	RMT5_tz	LCAL_tx	LCAL_ty	LCAL_tz	LTOE_tx	LTOE_ty	LTOE_tz	LMT5_tx	LMT5_ty	LMT5_tz	LACR_tx	LACR_ty	LACR_tz	RACR_tx	RACR_ty	RACR_tz	CLAV_tx	CLAV_ty	CLAV_tz	C7_tx	C7_ty	C7_tz	RUA1_tx	RUA1_ty	RUA1_tz	RUA2_tx	RUA2_ty	RUA2_tz	RUA3_tx	RUA3_ty	RUA3_tz	RLEL_tx	RLEL_ty	RLEL_tz	RMEL_tx	RMEL_ty	RMEL_tz	LUA1_tx	LUA1_ty	LUA1_tz	LUA2_tx	LUA2_ty	LUA2_tz	LUA3_tx	LUA3_ty	LUA3_tz	LLEL_tx	LLEL_ty	LLEL_tz	LMEL_tx	LMEL_ty	LMEL_tz	RFAsuperior_tx	RFAsuperior_ty	RFAsuperior_tz	RFAradius_tx	RFAradius_ty	RFAradius_tz	RFAulna_tx	RFAulna_ty	RFAulna_tz	LFAsuperior_tx	LFAsuperior_ty	LFAsuperior_tz	LFAradius_tx	LFAradius_ty	LFAradius_tz	LFAulna_tx	LFAulna_ty	LFAulna_tz
      0.16000000	     -5.72817667	      0.78713973	     -2.47962065	      1.09340783	      0.96148722	     -0.36239229	      0.04343436	      2.78253098	      3.28634446	    -35.62863718	     16.08350426	     38.84030345	      6.61758381	     -1.61586954	    -83.02196748	      6.85387941	    -13.77172146	      2.46437883	     15.93160198	    -11.89932625	    -22.05383393	     -6.86490186	    137.04636105	     97.72900680	    -49.18436925	    -18.70066256	     -4.80343671	    119.26201821	     88.40380490	      0.00000000	      0.00000000	      0.00000000	      0.00000000	      0.00000000	      0.00000000	      0.00000000	      0.00000000	      1.10556477	      0.98118287	     -0.48145896	      1.09719555	      0.97500214	     -0.22851114	      0.93896750	      1.04887860	     -0.41235576	      0.93423744	      1.04764115	     -0.31986171	      1.02776602	      0.80809884	     -0.17638187	      1.04693022	      0.70193530	     -0.19063914	      0.95872643	      0.57843749	     -0.21026817	      1.05309564	      0.84344740	     -0.54872030	      1.18013703	      0.77333726	     -0.52172573	      1.18245252	      0.64366166	     -0.51177218	      0.89718469	      0.32265291	     -0.28726896	      0.79834480	      0.26524708	     -0.24729388	      0.77089444	      0.20003252	     -0.31338141	      1.15351648	      0.41118035	     -0.42888465	      1.08319561	      0.40008694	     -0.46990164	      1.03867792	      0.33133603	     -0.41620687	      0.60993363	      0.17857798	     -0.31427951	      0.81570219	      0.06543398	     -0.32494863	      0.78663558	      0.05569880	     -0.24800596	      0.85697456	      0.32186207	     -0.39220226	      1.04354237	      0.09072368	     -0.38658890	      0.99372928	      0.16100395	     -0.48134428	      1.12591496	      1.51879384	     -0.50097759	      1.18093904	      1.47305510	     -0.17091705	      1.19697245	      1.42467991	     -0.31998948	      1.09790859	      1.53371760	     -0.32495179	      1.14808801	      1.33632807	     -0.09224665	      1.07876367	      1.32330772	     -0.07731195	      1.10159468	      1.25905415	     -0.06052391	      1.08116661	      1.18454470	     -0.03289858	      1.02596959	      1.17143458	     -0.10878461	      1.01401311	      1.47804679	     -0.56897580	      0.93391463	      1.47027807	     -0.52481860	      0.90850281	      1.41789838	     -0.59408911	      0.84994916	      1.37790967	     -0.61356934	      0.82774396	      1.36536854	     -0.52491375	      1.16057288	      1.20498873	     -0.07308105	      1.27046752	      1.24304629	     -0.19209112	      1.28869767	      1.17734360	     -0.16891372	      0.89953871	      1.30402813	     -0.62019672	      1.03074339	      1.19487927	     -0.56714369	      0.97849597	      1.14954770	     -0.58505624
      0.17000000	     -6.04431967	      2.12724618	     -2.50129543	      1.09648143	      0.96954528	     -0.36274889	     -3.68858073	      0.95396595	      3.47409264	    -31.70621171	     11.03911429	     39.98800834	      8.06299412	     -1.61991698	    -76.98907233	      6.66921914	    -13.00819156	      0.66107865	     16.28587414	    -11.95744348	    -22.09056871	     -4.98629408	    138.90124270	     98.56065391	    -51.99182999	    -18.16922228	     -6.53839701	    121.64217763	     88.43960996	      0.00000000	      0.00000000	      0.00000000	      0.00000000	      0.00000000	      0.00000000	      0.00000000	      0.00000000	      1.10932383	      0.99057200	     -0.48096537	      1.09992606	      0.98187380	     -0.22776735	      0.94261383	      1.05771995	     -0.41149764	      0.93732096	      1.05499789	     -0.31935332	      1.02581074	      0.81349453	     -0.17929673	      1.03739993	      0.70667727	     -0.19243707	      0.93984145	      0.58840573	     -0.20901574	      1.05757047	      0.85593423	     -0.54946570	      1.18370965	      0.78882515	     -0.52097276	      1.18868610	      0.65867526	     -0.51052731	      0.86782203	      0.33294614	     -0.28543843	      0.76857623	      0.27669478	     -0.24544418	      0.74143245	      0.21021029	     -0.31097839	      1.17591691	      0.41488689	     -0.42858369	      1.10732897	      0.39577995	     -0.46957051	      1.07081440	      0.32291545	     -0.41526696	      0.58284919	      0.19464183	     -0.31308330	      0.77802363	      0.06571351	     -0.32466935	      0.74839562	      0.05666162	     -0.24774102	      0.89122424	      0.29316508	     -0.39248978	      1.10229562	      0.08642910	     -0.37992325	      1.04555667	      0.14731390	     -0.47687057	      1.12408882	      1.52810318	     -0.50173737	      1.18401027	      1.48415822	     -0.17451133	      1.19756700	      1.43496343	     -0.32302181	      1.09791705	      1.54289366	     -0.32636706	      1.15419823	      1.34757444	     -0.09508783	      1.08666024	      1.33579257	     -0.07472752	      1.10937345	      1.27019602	     -0.06167028	      1.08882142	      1.19556205	     -0.03427717	      1.03044402	      1.18407848	     -0.10830666	      1.01115286	      1.49249161	     -0.56719447	      0.93299630	      1.48552029	     -0.52039149	      0.90353188	      1.43473699	     -0.58936595	      0.84263823	      1.39652690	     -0.60657390	      0.82419310	      1.38349085	     -0.51692794	      1.16560082	      1.21917940	     -0.07678062	      1.26877494	      1.26148033	     -0.20002342	      1.29061934	      1.19629913	     -0.17828522	      0.89145974	      1.32277554	     -0.61536925	      1.02597722	      1.21415631	     -0.56683737	      0.97371775	      1.16865549	     -0.58324323
      0.18000000	     -6.44598394	      3.52806256	     -2.51825799	      1.09946674	      0.97705863	     -0.36290997	     -7.12499403	     -0.92569248	      3.37243040	    -27.92931116	      5.62272058	     40.74753504	      9.57240033	     -1.32840755	    -70.24965666	      6.09208776	    -12.15301290	     -1.26015520	     16.53142835	    -12.05769869	    -22.29245543	     -2.83112265	    140.54675911	     99.24724717	    -54.74147198	    -17.52437226	     -8.40464456	    123.98567767	     88.80334360	      0.00000000	      0.00000000	      0.00000000	      0.00000000	      0.00000000	      0.00000000	      0.00000000	      0.00000000	      1.11302731	      0.99959635	     -0.48018732	      1.10297683	      0.98847506	     -0.22725180	      0.94620471	      1.06619705	     -0.41035532	      0.94042065	      1.06242476	     -0.31824146	      1.02316066	      0.81883097	     -0.18119598	      1.02824278	      0.71188594	     -0.19407018	      0.92230416	      0.59894010	     -0.20799743	      1.06191149	      0.86817842	     -0.55004621	      1.18710360	      0.80330219	     -0.52010283	      1.19339329	      0.67204271	     -0.50902817	      0.83997043	      0.34423029	     -0.28351500	      0.74019568	      0.28924908	     -0.24363661	      0.71364696	      0.22128615	     -0.30863442	      1.19724840	      0.41815702	     -0.42816867	      1.13108530	      0.39104153	     -0.46915350	      1.10297099	      0.31474834	     -0.41446193	      0.55775268	      0.21170246	     -0.31178153	      0.74110983	      0.06661928	     -0.32426628	      0.71093582	      0.05867641	     -0.24737066	      0.92725621	      0.26480154	     -0.39266603	      1.16069289	      0.08417144	     -0.37321949	      1.09789732	      0.13490284	     -0.47234604	      1.12253619	      1.53697319	     -0.50240492	      1.18663495	      1.49521513	     -0.17828485	      1.19794874	      1.44483551	     -0.32593560	      1.09778685	      1.55168314	     -0.32791120	      1.16013324	      1.35925918	     -0.09738720	      1.09473080	      1.34836877	     -0.07244039	      1.11690529	      1.28172949	     -0.06236951	      1.09620729	      1.20696156	     -0.03487595	      1.03360967	      1.19699522	     -0.10630272	      1.00870704	      1.50649887	     -0.56580609	      0.93272205	      1.49993348	     -0.51600784	      0.89940968	      1.45071926	     -0.58469409	      0.83636598	      1.41423500	     -0.59973390	      0.82164843	      1.40063917	     -0.50922877	      1.17030519	      1.23315824	     -0.07997070	      1.26664953	      1.27889233	     -0.20750898	      1.29169007	      1.21398987	     -0.18723963	      0.88464904	      1.34081064	     -0.61059902	      1.02207695	      1.23261266	     -0.56649927	      0.96999203	      1.18686531	     -0.58195087
      0.19000000	     -6.90192941	      4.79787576	     -2.47973371	      1.10240879	      0.98398882	     -0.36285537	    -10.12767757	     -2.60065287	      2.92577448	    -24.63952567	      0.00218940	     41.04627879	     10.93452545	     -0.61754357	    -62.84530014	      5.37959847	    -11.26179910	     -3.08220858	     16.60147317	    -12.25624935	    -22.72119757	     -0.38444785	    141.88968128	     99.51985960	    -57.27988598	    -16.70826171	    -10.37856506	    126.20218657	     89.67095287	      0.00000000	      0.00000000	      0.00000000	      0.00000000	      0.00000000	      0.00000000	      0.00000000	      0.00000000	      1.11656670	      1.00796689	     -0.47904664	      1.10644822	      0.99451921	     -0.22707843	      0.94963169	      1.07402107	     -0.40885082	      0.94357163	      1.06970373	     -0.31645234	      1.02012077	      0.82417125	     -0.18197260	      1.01987169	      0.71758501	     -0.19576679	      0.90693626	      0.61018208	     -0.20762046	      1.06599356	      0.87990921	     -0.55028666	      1.19028078	      0.81570763	     -0.51901175	      1.19575877	      0.68258050	     -0.50717865	      0.81474360	      0.35708770	     -0.28188369	      0.71445822	      0.30321251	     -0.24204937	      0.68874351	      0.23360191	     -0.30652734	      1.21688979	      0.42063982	     -0.42802315	      1.15405245	      0.38568306	     -0.46879545	      1.13501825	      0.30701038	     -0.41399172	      0.53626127	      0.23023635	     -0.31041107	      0.70562291	      0.06850248	     -0.32359308	      0.67495891	      0.06234313	     -0.24681445	      0.96591406	      0.23716921	     -0.39238011	      1.21807941	      0.08543424	     -0.36683932	      1.15067691	      0.12490384	     -0.46808611	      1.12139008	      1.54504786	     -0.50297989	      1.18868053	      1.50598446	     -0.18228607	      1.19810839	      1.45391822	     -0.32861075	      1.09747274	      1.55973317	     -0.32965002	      1.16580689	      1.37133079	     -0.09909633	      1.10259781	      1.36089896	     -0.07098827	      1.12391444	      1.29375618	     -0.06246853	      1.10308745	      1.21880108	     -0.03447539	      1.03517044	      1.21011747	     -0.10236510	      1.00689141	      1.51951548	     -0.56497697	      0.93336673	      1.51293679	     -0.51176713	      0.89651270	      1.46536918	     -0.58025412	      0.83159427	      1.43030564	     -0.59338686	      0.82050188	      1.41601242	     -0.50223837	      1.17451039	      1.24657134	     -0.08250305	      1.26400398	      1.29462071	     -0.21421302	      1.29138701	      1.22953075	     -0.19556929	      0.87973018	      1.35752059	     -0.60612573	      1.01957581	      1.24957761	     -0.56622265	      0.96792785	      1.20348150	     -0.58152696
